<?xml version="1.0" encoding="UTF-8" standalone="no"?>
<svg width="150px" height="35px" viewBox="0 0 150 35" version="1.1" xmlns="http://www.w3.org/2000/svg" xmlns:xlink="http://www.w3.org/1999/xlink">
    <!-- Generator: Sketch 3.6.1 (26313) - http://www.bohemiancoding.com/sketch -->
    <title>logo-black</title>
    <desc>Created with Sketch.</desc>
    <defs>
        <path d="M6.91339695,5.20752871 L13.5710034,11.8618349 L15.9239377,11.8618349 L8.45549397,3.06598589 L7.43820711,3.06598589 L0,11.8618349 L1.26563459,11.8618349 L6.91339695,5.20752871 Z M22.3366518,3.02878724 L22.3366518,11.7129823 L24.4624507,11.7129823 L24.4624507,8.27652225 L34.3260865,8.27652225 C34.9626936,7.57351593 35.2809972,6.69682588 35.2809972,5.64645175 C35.2809972,4.58780709 34.9626936,3.71525212 34.3260865,3.02878724 L22.3366518,3.02878724 Z M24.4624507,3.73592884 L33.1589733,3.73592884 C33.5126438,4.2156273 33.6894793,4.85246821 33.6894793,5.64645175 C33.6894793,6.41562331 33.5214859,7.05659968 33.1854986,7.56938066 L24.4624507,7.56938066 L24.4624507,3.73592884 Z M42.8873497,3.02878724 L42.8873497,11.7129823 L45.0131486,11.7129823 L45.0131486,8.27652225 L54.8767843,8.27652225 C55.5133915,7.57351593 55.8316951,6.69682588 55.8316951,5.64645175 C55.8316951,4.58780709 55.5133915,3.71525212 54.8767843,3.02878724 L42.8873497,3.02878724 Z M45.0131486,3.73592884 L53.7096712,3.73592884 C54.0633417,4.2156273 54.2401772,4.85246821 54.2401772,5.64645175 C54.2401772,6.41562331 54.0721838,7.05659968 53.7361965,7.56938066 L45.0131486,7.56938066 L45.0131486,3.73592884 Z M65.0295655,9.95358459 L65.0295655,3.02878724 L63.4380476,3.02878724 L63.4380476,11.7129823 L74.9500269,11.7129823 L74.9500269,9.95358459 L65.0295655,9.95358459 Z M87.055544,5.05874489 L93.7131505,11.7130511 L96.0660848,11.7130511 L88.5976411,2.91720208 L87.5803542,2.91720208 L80.1421471,11.7130511 L81.4077817,11.7130511 L87.055544,5.05874489 Z M91.6602964,1.9746538 L92.5887179,1.9746538 L88.9451014,0.138165118 L87.8064713,0.138165118 L84.1628549,1.9746538 L85.0912764,1.9746538 L87.7840176,0.795317952 L91.6602964,1.9746538 Z M115.414815,3.02878724 L113.823298,3.02878724 L113.823298,10.1390478 L103.478431,10.1390478 L103.478431,3.02878724 L101.886914,3.02878724 L101.886914,11.5392984 C103.991254,11.746065 106.245904,11.8494482 108.650865,11.8494482 C111.055825,11.8494482 113.310475,11.746065 115.414815,11.5392984 L115.414815,3.02878724 Z M123.472098,3.02878724 L123.472098,11.7129823 L129.042411,11.7129823 C130.527827,11.7129823 131.977877,11.6220051 133.392559,11.4400505 C134.807242,11.2580958 136.009722,11.009976 137,10.6956909 L137,4.04607866 C136.009722,3.73179357 134.807242,3.48367372 133.392559,3.30171909 C131.977877,3.11976446 130.527827,3.02878724 129.042411,3.02878724 L123.472098,3.02878724 Z M125.063616,3.73592884 L128.936309,3.73592884 C130.174157,3.73592884 131.376637,3.80002653 132.54375,3.92822173 C133.710863,4.05641693 134.665774,4.22803329 135.408482,4.44307044 L135.408482,9.48549883 C134.665774,9.70053598 133.710863,9.87215234 132.54375,10.0003475 C131.376637,10.1285427 130.174157,10.1926404 128.936309,10.1926404 L125.063616,10.1926404 L125.063616,3.73592884 Z" id="path-1"></path>
    </defs>
    <g id="Page-1" stroke="none" stroke-width="1" fill="none" fill-rule="evenodd">
        <g id="logo-black">
            <g id="Group-Copy-2" transform="translate(7.000000, 10.000000)">
                <g id="thinner-copy-10">
                    <use stroke="#000000" stroke-width="0.3" fill="none" xlink:href="#path-1"></use>
                    <use stroke="none" fill="none" xlink:href="#path-1"></use>
                    <use stroke="none" fill="none" xlink:href="#path-1"></use>
                    <use stroke="none" fill="none" xlink:href="#path-1"></use>
                    <use stroke="none" fill="#3B3B3B" fill-rule="evenodd" xlink:href="#path-1"></use>
                </g>
            </g>
        </g>
    </g>
</svg>